<?xml version="1.0" encoding="UTF-8" standalone="no"?>
<!-- Created with Inkscape (http://www.inkscape.org/) -->

<svg
   width="40mm"
   height="40mm"
   viewBox="0 0 40 40"
   version="1.1"
   id="svg1"
   xml:space="preserve"
   inkscape:version="1.3.2 (091e20e, 2023-11-25, custom)"
   sodipodi:docname="defense.svg"
   xmlns:inkscape="http://www.inkscape.org/namespaces/inkscape"
   xmlns:sodipodi="http://sodipodi.sourceforge.net/DTD/sodipodi-0.dtd"
   xmlns="http://www.w3.org/2000/svg"
   xmlns:svg="http://www.w3.org/2000/svg"><path
      id="path"
      d="M 7.2168 10.3803 L 7.2168 12.5563 L 19.6269 12.5563 L 19.6269 22.8234 L 8.9764 22.8234 L 8.9764 12.5563 L 7.2168 12.5563 L 7.2168 28.1332 L 7.86647 29.2754 L 8.61428 30.3561 L 9.45693 31.3642 L 10.3901 32.2905 L 11.4058 33.1252 L 12.4955 33.8607 L 13.6482 34.4907 L 14.855 35.0116 L 16.1053 35.4199 L 17.386 35.7129 L 18.6891 35.8901 L 20.0014 35.9504 L 21.315 35.8935 L 22.6174 35.7199 L 23.8996 35.4299 L 25.1492 35.025 L 26.3565 34.507 L 27.5115 33.8783 L 28.6024 33.1436 L 29.6182 32.3096 L 30.5508 31.3829 L 31.3925 30.3729 L 32.1375 29.29 L 32.7832 28.1445 L 31.9337 28.1445 L 31.258 29.1518 L 30.4994 30.0989 L 29.6636 30.9788 L 28.7574 31.7849 L 27.7874 32.5117 L 26.7585 33.1557 L 25.681 33.7104 L 24.5605 34.1731 L 23.4047 34.5403 L 22.2214 34.8092 L 21.0191 34.9777 L 21.0191 24.4285 L 31.9337 24.4285 L 31.9337 28.1445 L 32.7832 28.1445 L 32.7832 10.3803 Z" /></svg>
