<?xml version="1.0" encoding="UTF-8" standalone="no"?>
<!-- Created with Inkscape (http://www.inkscape.org/) -->

<svg
   width="40mm"
   height="40mm"
   viewBox="0 0 40 40"
   version="1.1"
   id="svg1"
   xml:space="preserve"
   inkscape:version="1.3.2 (091e20e, 2023-11-25, custom)"
   sodipodi:docname="skill.svg"
   xmlns:inkscape="http://www.inkscape.org/namespaces/inkscape"
   xmlns:sodipodi="http://sodipodi.sourceforge.net/DTD/sodipodi-0.dtd"
   xmlns="http://www.w3.org/2000/svg"
   xmlns:svg="http://www.w3.org/2000/svg"><path
      id="path"
      d="M 23.256978 18.76888 L 30.514933 11.510409 L 30.514933 8.2485921 L 27.253634 8.2485921 L 19.999813 15.512231 L 23.256978 18.76888 L 19.999813 22.025529 L 23.586157 25.620658 L 19.999813 29.197184 L 16.413985 25.620658 L 19.999813 22.025529 L 16.743164 18.76888 L 19.999813 15.512231 L 12.746509 8.2485921 L 9.4852091 8.2485921 L 9.4852091 8.2485921 L 9.4852091 11.510409 L 16.743164 18.76888 L 13.152686 22.359359 L 9.1198568 18.32653 L 7.163387 18.32653 L 7.163387 20.304704 L 11.174512 24.337533 L 5.8244507 29.687594 L 9.0857503 32.948893 L 14.435811 27.598832 L 18.46864 31.631661 L 19.999813 31.631661 L 21.531502 31.631661 L 25.564331 27.598832 L 30.914392 32.948893 L 34.175692 29.687594 L 28.825631 24.337533 L 32.836755 20.304704 L 32.836755 18.32653 L 30.880286 18.32653 L 26.847457 22.359359 L 23.256978 18.76888 z" /></svg>
